<?xml version="1.0" standalone="no"?>
<!DOCTYPE svg PUBLIC "-//W3C//DTD SVG 20010904//EN"
 "http://www.w3.org/TR/2001/REC-SVG-20010904/DTD/svg10.dtd">
<svg version="1.0" xmlns="http://www.w3.org/2000/svg"
 width="128.000000pt" height="128.000000pt" viewBox="0 0 128.000000 128.000000"
 preserveAspectRatio="xMidYMid meet">

<g transform="translate(0.000000,128.000000) scale(0.100000,-0.100000)"
fill="#000000" stroke="none">
<path d="M0 640 l0 -640 640 0 640 0 0 640 0 640 -640 0 -640 0 0 -640z m578
368 l3 -38 325 0 324 0 0 -65 0 -65 -590 0 -590 0 0 65 c0 63 1 65 25 65 23 0
25 4 25 40 l0 40 238 -2 237 -3 3 -37z m230 -183 c-3 -3 -174 -7 -379 -8
l-374 -2 2 -150 1 -150 -8 145 c-6 99 -5 149 2 157 8 10 94 13 386 13 206 0
373 -2 370 -5z m-319 -55 c34 -17 39 -23 35 -46 -8 -42 -19 -58 -65 -90 -35
-24 -53 -29 -110 -31 -40 -1 -88 5 -118 15 -49 15 -51 17 -51 52 0 58 42 100
125 121 46 12 141 2 184 -21z"/>
</g>
</svg>
