<?xml version="1.0" standalone="no"?>
<!DOCTYPE svg PUBLIC "-//W3C//DTD SVG 20010904//EN"
 "http://www.w3.org/TR/2001/REC-SVG-20010904/DTD/svg10.dtd">
<svg version="1.0" xmlns="http://www.w3.org/2000/svg"
 width="128.000000pt" height="128.000000pt" viewBox="0 0 128.000000 128.000000"
 preserveAspectRatio="xMidYMid meet">

<g transform="translate(0.000000,128.000000) scale(0.100000,-0.100000)"
fill="#000000" stroke="none">
<path d="M0 640 l0 -640 640 0 640 0 0 640 0 640 -640 0 -640 0 0 -640z m869
602 c74 -50 187 -150 213 -189 l26 -38 -5 -457 -6 -458 -458 0 -459 0 0 238
c0 131 -3 395 -7 585 l-6 347 330 0 330 0 42 -28z"/>
<path d="M840 1053 c0 -11 79 -23 150 -23 72 1 26 18 -68 26 -53 4 -82 3 -82
-3z"/>
<path d="M783 876 c37 -12 78 -33 92 -46 24 -22 34 -64 17 -73 -4 -3 -7 9 -7
26 0 28 -6 35 -45 54 -25 12 -64 25 -87 29 -36 5 -43 4 -43 -10 0 -14 -14 -16
-100 -16 -85 0 -100 2 -100 16 0 36 -163 -18 -176 -58 -10 -32 26 -70 87 -92
79 -30 299 -29 382 0 68 25 66 20 -10 -21 -53 -29 -57 -33 -75 -94 -16 -51
-30 -74 -69 -112 l-50 -49 27 -11 c23 -8 25 -12 14 -19 -23 -14 -81 -12 -132
6 -60 20 -122 74 -158 138 -17 28 -30 46 -30 40 0 -26 82 -134 122 -161 61
-43 110 -56 186 -51 80 4 148 36 196 89 19 20 45 39 59 43 71 17 187 150 172
197 -8 23 -60 49 -100 49 -20 0 -25 5 -25 26 0 54 -36 84 -135 110 -79 22 -86
16 -12 -10z m251 -168 c14 -20 14 -23 1 -31 -8 -4 -15 -16 -15 -27 0 -10 -11
-32 -24 -47 -28 -33 -104 -88 -111 -81 -11 10 28 84 56 106 31 25 39 62 14 62
-8 0 -15 2 -15 4 0 2 -3 11 -6 20 -5 13 2 16 39 16 36 0 49 -5 61 -22z m-74
-36 c0 -5 -9 -17 -20 -27 -16 -14 -20 -15 -20 -4 0 16 19 39 32 39 4 0 8 -4 8
-8z"/>
<path d="M291 724 c0 -11 3 -14 6 -6 3 7 2 16 -1 19 -3 4 -6 -2 -5 -13z"/>
</g>
</svg>
