<?xml version="1.0" encoding="UTF-8" standalone="no"?>
<svg
   xmlns:osb="http://www.openswatchbook.org/uri/2009/osb"
   xmlns:dc="http://purl.org/dc/elements/1.1/"
   xmlns:cc="http://creativecommons.org/ns#"
   xmlns:rdf="http://www.w3.org/1999/02/22-rdf-syntax-ns#"
   xmlns:svg="http://www.w3.org/2000/svg"
   xmlns="http://www.w3.org/2000/svg"
   xmlns:xlink="http://www.w3.org/1999/xlink"
   id="svg3336"
   version="1.1"
   width="500"
   height="587.5"
   viewBox="0 0 500 587.5">
  <metadata
     id="metadata3342">
    <rdf:RDF>
      <cc:Work
         rdf:about="">
        <dc:format>image/svg+xml</dc:format>
        <dc:type
           rdf:resource="http://purl.org/dc/dcmitype/StillImage" />
        <dc:title></dc:title>
      </cc:Work>
    </rdf:RDF>
  </metadata>
  <defs
     id="defs3340">
    <linearGradient
       id="linearGradient6443"
       osb:paint="solid">
      <stop
         style="stop-color:#d40000;stop-opacity:1;"
         offset="0"
         id="stop6445" />
    </linearGradient>
    <linearGradient
       id="linearGradient6423">
      <stop
         style="stop-color:#ffffff;stop-opacity:1;"
         offset="0"
         id="stop6425" />
      <stop
         style="stop-color:#ffffff;stop-opacity:0;"
         offset="1"
         id="stop6427" />
    </linearGradient>
    <linearGradient
       id="linearGradient6409"
       osb:paint="solid">
      <stop
         style="stop-color:#000000;stop-opacity:1;"
         offset="0"
         id="stop6411" />
    </linearGradient>
    <linearGradient
       id="linearGradient6369"
       osb:paint="solid">
      <stop
         style="stop-color:#000000;stop-opacity:1;"
         offset="0"
         id="stop6371" />
    </linearGradient>
    <radialGradient
       xlink:href="#linearGradient4927"
       id="radialGradient4931"
       cx="-21"
       cy="93"
       fx="-21"
       fy="93"
       r="53"
       gradientUnits="userSpaceOnUse"
       gradientTransform="matrix(0.96200456,1.9516871,-1.9240091,0.99536038,391.01446,236.66821)" />
    <linearGradient
       id="linearGradient4927">
      <stop
         style="stop-color:#ffffff;stop-opacity:1;"
         offset="0"
         id="stop4923" />
      <stop
         style="stop-color:#ffffff;stop-opacity:0;"
         offset="1"
         id="stop4925" />
    </linearGradient>
    <linearGradient
       xlink:href="#linearGradient6423"
       id="linearGradient6429"
       x1="175.2786"
       y1="266.08626"
       x2="406.16178"
       y2="266.08626"
       gradientUnits="userSpaceOnUse" />
    <linearGradient
       xlink:href="#linearGradient6443"
       id="linearGradient6447"
       x1="174.2786"
       y1="266.08626"
       x2="407.16178"
       y2="266.08626"
       gradientUnits="userSpaceOnUse" />
  </defs>
  <g
     transform="translate(-0.25,-1)"
     id="g3630">
    <path
       id="path3644"
       d="m 214.94311,573.23297 c -3.4375,-0.64846 -7.9375,-1.0702 -10,-0.9372 -16.86168,1.08739 -22.51766,0.51527 -28.26606,-2.85926 -7.04833,-4.13764 -12.83575,-10.53976 -15.04118,-16.63875 -1.31102,-3.62557 -3.36022,-5.5703 -9.88484,-9.38088 -16.42568,-9.59311 -38.30237,-16.96845 -62.505615,-21.07263 -16.35958,-2.77414 -59.28278,-6.38819 -75.87079,-6.38819 l -9.7730098,0 0.84977,-9.6875 c 1.53821,-17.53581 8.2755998,-37.76931 25.3928898,-76.25906 5.21061,-11.71652 9.47383,-21.58021 9.47383,-21.91935 0,-2.14819 -5.4921,-1.72708 -15.1064,1.15827 -5.121719,2.30473 -9.151607,2.24408 -12.106229,0.78761 -8.9448539,-4.40934 -8.0346722,-21.61169 2.270899,-24.70497 l 0.28337,-83.125 0.28336,-83.125 3.54336,-5.91546 c 6.87375,-11.47538 16.66713,-17.15464 29.58164,-17.15464 13.88289,0 24.89005,6.91219 30.76587,19.3201 2.95971,6.25 2.95971,6.25 2.97192,57.8125 0.007,28.35937 0.43409,51.53962 0.94971,51.51167 0.51563,-0.028 3.89063,-4.53292 7.5,-10.01102 l 6.562495,-9.96019 0,-51.86399 0,-51.86397 153.75001,0 153.75,0 -0.0134,92.1875 -0.0134,92.1875 7.79381,19.375 c 99.98654,260.11963 -9.05419,-59.76667 -71.1999,144.1728 -1.86066,6.9518 -6.08472,12.98036 -12.55047,17.91195 -10.73721,8.18955 -23.16634,8.96841 -36.03959,2.25842 l -8.45457,-4.40682 -10.19375,3.68852 c -16.42854,5.94455 -41.90172,8.07168 -58.70375,4.90204 z m 47.38314,-144.8243 c 21.73049,-3.14099 44.76537,-14.2852 60.58531,-29.31101 15.14039,-14.38037 28.40589,-46.53805 28.40589,-46.53805 0,0 6.203,-27.18581 3.80715,-45.98459 -3.11442,-24.43696 -9.65483,-37.97332 -27.47756,-56.86896 -12.95282,-13.73254 -23.85609,-21.65466 -37.78305,-27.45246 -41.59202,-17.3148 -91.26291,-8.21102 -120.98764,22.17487 -25.1551,25.67184 -39.22046,62.40863 -32.07979,97.15259 1.30353,5.71369 0.36499,7.42316 0.36499,7.42316 0,0 -0.53137,2.05594 -7.35338,3.74901 -1.94324,0.48773 -5.41986,1.12833 -7.72582,1.42357 -11.78016,0.23654 -8.78209,5.17808 -11.8216,5.62351 -0.28355,0.75875 -26.380975,7.04406 -54.872515,15.91031 -9.039553,3.62939 -72.777554,13.24268 -43.88263,32.80381 0.51563,0.0321 24.13825,-7.13977 52.49473,-15.9375 31.83982,-9.87846 51.559235,-16.59343 51.562495,-17.55837 0.006,-1.84843 2.03808,-2.07971 3.10497,-0.35344 0.92136,1.49078 8.09807,0.2524 10.65031,-1.83775 1.03125,-0.84455 3.42187,-1.90305 5.3125,-2.35224 4.43997,-1.26027 5.44893,-1.58888 8.9667,-1.39407 1.56571,0 3.74547,2.25211 6.25,6.45745 13.16862,22.11132 35.40987,39.9002 59.88847,47.89967 17.68305,5.77873 35.40855,7.45403 52.59047,4.97049 z m -37.0539,-13.66675 c -13.5158,-2.45132 -29.04918,-9.19936 -40.2622,-17.49076 -8.9011,-6.58188 -21.06445,-19.94293 -24.36833,-26.76784 -2.76426,-4.89781 -4.73712,-9.1931 -6.50184,-13.72611 -1.05561,-2.4032 -2.85005,-6.64679 -2.85005,-6.64679 0,0 -17.68823,-58.88096 31.54303,-101.19191 3.22307,-2.59158 7.24327,-6.04661 8.93377,-7.67786 12.21813,-8.86548 23.87792,-13.15609 37.13092,-16.03254 10.44141,-2.45844 33.4103,-1.74015 44.74469,1.39929 18.45696,5.11226 43.69647,26.56547 43.69647,26.56547 -23.25,-17.5 52.6563,29.19377 12.7161,112.03319 -3.60522,7.37281 -24.54061,32.42165 -31.3618,36.13081 -8.65381,5.60459 -19.79483,7.96831 -28.2706,10.77562 -5.77521,2.21523 -8.83231,4.41724 -21.91874,4.7296 -8.9375,0.21334 -19.97501,-1.50961 -23.23142,-2.10017 z m 219.67076,-7.38566 c -5.62516,-1.48516 -13.40708,-5.78479 -16.45393,-9.09105 -1.48715,-1.61379 -4.15902,-5.6898 -5.9375,-9.05783 l -3.23357,-6.12367 0.0275,-80.75133 c 0.0266,-78.50191 0.0983,-80.90801 2.57067,-86.37632 5.6862,-12.57629 17.25108,-19.98641 31.15183,-19.96034 12.92454,0.0242 22.71545,5.70712 29.58164,17.16988 l 3.54336,5.91546 0.35509,80.625 c 0.38921,88.37379 0.62256,85.21545 -7.08115,95.84269 -6.64639,9.16865 -23.14574,14.81158 -34.52394,11.80751 z m -338.4375,-219.89028 -9.68751,-0.36508 0,-5.34284 c 0,-14.21503 5.43232,-35.41021 12.96618,-50.58998 13.46046,-27.12108 34.62668,-49.31489 61.66958,-64.66354 l 4.01076,-2.27637 -5.45071,-10.07355 c -2.9979,-5.54046 -8.59961,-15.630049 -12.44826,-22.421309 -3.84865,-6.79126 -6.99754,-13.41829 -6.99754,-14.72673 0,-2.81682 3.34919,-4.42033 5.87322,-2.81195 1.49725,0.95407 24.43828,40.820929 25.7438,44.737489 0.25102,0.75307 7.10003,-0.89108 16.59273,-3.98319 12.49337,-4.06954 20.21129,-5.72172 33.97775,-7.27362 16.35775,-1.84402 19.26725,-1.84402 35.625,0 13.76646,1.5519 21.48437,3.20408 33.97775,7.27362 9.4927,3.09211 16.34171,4.73626 16.59272,3.98319 1.30553,-3.91656 24.24655,-43.783419 25.7438,-44.737489 2.52404,-1.60838 5.87323,-0.005 5.87323,2.81195 0,1.30844 -3.14889,7.93547 -6.99754,14.72673 -3.84865,6.79126 -9.45036,16.880849 -12.44826,22.421309 l -5.45071,10.07355 4.01076,2.27637 c 18.27164,10.37037 38.90606,28.74608 49.91542,44.45152 7.90862,11.28207 15.12038,25.50342 18.38738,36.25927 3.3275,10.95511 6.3289,27.39468 6.33124,34.67823 0.002,5.3125 0.002,5.3125 -5.31079,5.33105 -103.46767,0.36122 -285.33729,0.5113 -292.5,0.24137 z m 219.29377,-59.90283 c -1.15295,-11.17097 -10.04966,-19.10709 -20.54888,-19.10709 -19.72331,2.03814 -19.07047,13.0674 -23.0966,29.4457 -2.92159,20.20472 -0.19137,18.8147 23.81218,23.60467 10.93808,-9.3733 21.00106,-19.79473 19.8333,-33.94328 z M 192.1742,155.77078 c 5.58878,-2.39392 13.43992,-1.78914 14.0584,-5.08594 7.84601,-6.83011 7.49704,-33.78765 -1.36674,-39.84547 -6.45564,-4.33598 -16.6682,-2.71765 -23.04793,0.37073 -13.64706,10.08647 -13.92677,29.90704 -6.87928,42.0677 3.8012,6.4666 5.14437,5.52036 17.23548,2.49298 z"
       style="fill:#a3c538" />
    <path
       id="path3636"
       d="m 226.375,572.7734 c -1.375,-0.21238 -7.79303,0.75393 -11.81784,0.314 l -7.31783,-0.79986 6.82545,-6.08342 c 4.3556,-3.88208 7.90826,-8.47994 9.81783,-12.70627 2.93407,-6.49376 2.99998,-7.43295 3.38139,-48.18535 l 0.38899,-41.5625 22.34701,0 22.34701,0 0.38899,41.5625 c 0.37668,40.2451 0.47966,41.75916 3.24924,47.76683 1.57313,3.41238 3.80077,7.24359 4.9503,8.51381 2.6403,2.9175 1.8141,3.50083 -10.93554,7.72082 -13.21106,4.37274 -32.46554,5.18309 -43.625,3.45944 z m 267.375,-3.9717 c -1.9759,-1.10656 -36.11499,-10.71863 -56.25,-15.83753 -16.61855,-4.22491 -39.78412,-8.80858 -53.44813,-10.57555 -11.31442,-1.46311 -34.96467,-1.01125 -39.36437,0.75212 -2.056,0.82403 -2.1875,-1.52598 -2.1875,-39.09394 l 0,-39.97068 16.5625,-0.58057 c 14.72064,-0.516 17.34947,-0.95543 23.6392,-3.95141 8.13,-3.87258 15.16811,-11.06788 18.96754,-19.39114 2.28462,-5.00485 2.70234,-8.70506 3.12171,-27.653 l 0.48417,-21.875 2.45239,6.25 c 9.16123,23.34769 30.64591,68.44081 46.7518,98.125 14.69579,27.08528 38.65359,67.57765 40.7604,68.89136 0.67596,0.4215 1.03918,1.93501 0.80715,3.36338 -0.30811,1.89676 -0.92742,2.31387 -2.29686,1.54696 z M 145.625,540.53786 c -17.37184,-9.36727 -37.20884,-18.13571 -63.5,-22.13932 -17.600218,-2.68015 -49.926229,-2.19619 -67.4375,-2.16685 L 4,514.5 3.75,509.51185 c -0.7166846,-14.29972 8.705148,-40.55076 27.67308,-83.39324 l 7.529349,-17.00637 8.336285,0.0418 c 6.574777,0.0329 9.672172,-0.64438 14.658331,-3.20533 C 68.028161,402.82533 77.5,394.38545 77.5,392.09021 c 0,-0.60922 0.84375,-0.78391 1.875,-0.38817 1.03125,0.39572 1.875397,0.31527 1.875882,-0.17877 4.87e-4,-0.49405 1.364807,-0.97678 3.031825,-1.07273 1.667018,-0.096 4.718169,-1.01616 6.780334,-2.04491 l 3.749393,-1.87044 0.414808,23.9199 c 0.380547,21.94411 0.658115,24.45961 3.360373,30.45372 3.462825,7.6812 11.736815,15.74982 19.942795,19.44779 4.72261,2.12821 9.02408,2.73452 22.40709,3.1584 l 16.5625,0.52458 0,41.10521 c 0,22.60786 -0.42188,41.03322 -0.9375,40.94525 -0.51563,-0.088 -5.4375,-2.58645 -10.9375,-5.55218 z M 82.5,344.95967 l 0,-18.79032 5.737961,-8.70968 C 91.39384,312.66935 94.20634,308.75 94.487961,308.75 94.769582,308.75 95,320.22838 95,334.2575 l 0,25.5075 -5.847674,1.9925 c -3.21622,1.09588 -6.02872,1.9925 -6.25,1.9925 C 82.681047,363.75 82.5,355.29435 82.5,344.95967 Z M 388.1161,186.6045 c -2.05761,-1.04966 -4.8661,-2.90526 -6.2411,-4.12354 -1.375,-1.21827 -7.28125,-4.62585 -13.125,-7.57238 -10.18874,-5.13738 -11.35155,-5.42073 -28.31995,-6.90108 -9.73222,-0.84904 -18.8137,-2.14245 -20.18105,-2.87424 -1.36736,-0.73179 -5.63901,-1.70108 -9.49255,-2.154 -3.85355,-0.4529 -7.00645,-1.28212 -7.00645,-1.84271 0,-0.56059 1.95554,-1.94721 4.34562,-3.08139 5.38319,-2.55448 12.77218,-10.58512 15.29507,-16.62325 4.57772,-10.95604 0.45287,-25.67026 -8.47264,-30.22372 -5.7155,-2.91583 -12.43624,-3.15939 -17.33123,-0.62809 -7.67738,3.97014 -12.12306,12.58168 -14.53868,28.16237 l -0.87093,5.61747 3.7879,-4.05497 c 2.08335,-2.23023 4.82786,-3.98972 6.0989,-3.90997 1.91821,0.12037 1.96101,0.23796 0.25178,0.69195 -2.61019,0.69329 -3.81313,5.11525 -2.20764,8.11514 2.72209,5.08626 7.34432,0.55577 5.46716,-5.35863 -0.53696,-1.69185 -0.37371,-2.36641 0.44958,-1.85759 0.711,0.43943 1.93988,2.75987 2.73086,5.15654 1.74759,5.29527 -0.16701,12.43695 -3.86475,14.41593 -2.38528,1.27656 -14.14868,-0.54186 -24.891,-3.84773 -7.25634,-2.23307 -42.16766,-3.01187 -56.87578,-1.26877 -7.25373,0.85966 -14.50917,1.23158 -16.12318,0.82648 -3.70224,-0.9292 -6.31878,-6.99211 -5.27337,-12.21917 1.11265,-5.56328 2.9601,-7.29915 7.76828,-7.29915 3.44145,0 4.55602,0.70811 6.23985,3.96426 1.85131,3.58005 2.17337,3.74383 3.32287,1.68978 1.76328,-3.15082 0.2695,-18.96046 -2.13877,-22.63595 -7.33041,-11.18762 -24.58566,-9.94419 -30.79076,2.21882 -5.52767,10.8351 -5.18385,26.0269 0.79343,35.05919 2.24522,3.39275 2.68935,4.89546 1.54978,5.24361 -0.87854,0.26839 -9.47235,2.84199 -19.09735,5.7191 -20.44523,6.1115 -33.63065,12.17676 -40.07291,18.43339 l -4.60423,4.47157 -2.42951,-3.01938 c -2.86969,-3.56645 -6.01835,-10.31017 -6.01835,-12.88995 0,-1.00423 0.71042,-2.56918 1.57871,-3.47765 0.86828,-0.90849 2.53394,-3.14553 3.70145,-4.97121 1.48688,-2.3251 3.63267,-3.57453 7.16347,-4.17105 3.596,-0.60754 5.79858,-1.91594 7.68491,-4.56505 1.45431,-2.04238 2.40772,-3.94988 2.11871,-4.23889 -0.28901,-0.28901 -4.53099,1.96724 -9.42663,5.01387 l -8.90115,5.53935 -3.20974,-5.47698 c -1.76535,-3.01236 -3.20973,-7.27919 -3.20973,-9.48188 0,-4.12843 3.87134,-11.67143 6.5878,-12.83579 14.22334,-6.0966 22.92469,-9.58916 23.89035,-9.58916 2.14914,0 18.87256,-8.01195 19.80617,-9.48885 0.50013,-0.79116 3.46892,-4.84348 6.59729,-9.00515 7.25946,-9.657204 13.26896,-12.756 24.73775,-12.756 10.13938,0 16.42681,2.3275 26.79818,9.92021 4.2859,3.13763 9.77947,6.95063 12.20795,8.47331 4.03703,2.53129 4.30596,2.56403 3.13823,0.38212 -0.70245,-1.31252 -1.84582,-2.73785 -2.54083,-3.1674 -3.52207,-2.17675 1.9971,-2.94266 21.42718,-2.9735 21.35675,-0.0339 21.35675,-0.0339 25.91584,-3.52182 2.5075,-1.918357 8.18309,-5.316045 12.61243,-7.55042 12.58962,-6.35083 24.18508,-5.395729 41.16516,3.390714 7.24491,3.748926 16.17834,13.807956 19.55288,22.016546 1.84426,4.48619 3.05598,6.29659 3.07394,4.59274 0.037,-3.50472 0.24528,-3.49737 8.03009,0.28332 3.50603,1.70269 10.48865,3.95252 15.51695,4.9996 13.27414,2.76419 20.9611,6.3777 22.74893,10.69389 1.27464,3.07726 1.05164,4.49426 -1.60594,10.20458 -4.6565,10.00538 -4.65565,10.03123 0.44874,13.72883 6.01571,4.35775 6.7606,7.00583 4.32626,15.37967 -2.37487,8.16928 -4.81972,9.93012 -10.06925,7.25211 z m -0.72026,-27.06019 c -0.28647,-0.25062 -1.92709,-1.1254 -3.64584,-1.94395 -2.94659,-1.40331 -2.98648,-1.37729 -0.69859,0.45568 1.99125,1.59532 6.05983,2.9891 4.34443,1.48827 z M 203.125,140 c 0,-3.05536 -0.61614,-4.45942 -2.0807,-4.74148 -2.46621,-0.47493 -4.07745,3.59249 -2.89674,7.31257 1.37089,4.31928 4.97744,2.45633 4.97744,-2.57109 z"
       style="fill:#d40000" />
    <path
       id="path3632"
       d="m 217.61871,573.60239 c -5.09095,-0.59031 -9.46564,-1.28264 -9.72151,-1.53853 -0.25589,-0.25588 1.45819,-1.93231 3.80904,-3.7254 4.27428,-3.26015 4.27428,-3.26015 13.47152,-1.28642 8.51841,1.82805 10.25823,1.81027 23.57224,-0.24086 7.90625,-1.21804 17.84261,-3.48681 22.0808,-5.04172 7.67692,-2.81651 7.71422,-2.81781 9.9503,-0.34697 2.809,3.10391 2.08731,3.63216 -10.7811,7.89147 -15.61629,5.16884 -32.7153,6.56873 -52.38129,4.28843 z M 493.75,568.8017 c -1.9759,-1.10656 -36.11499,-10.71863 -56.25,-15.83753 -16.61855,-4.22491 -39.78412,-8.80858 -53.44813,-10.57555 -11.31442,-1.46311 -34.96467,-1.01125 -39.36437,0.75212 -1.79585,0.71976 -2.1875,0.19646 -2.1875,-2.92276 0,-4.40156 0.66413,-4.69724 13.125,-5.84361 23.37866,-2.15078 72.79063,6.29718 114.2021,19.52514 6.43615,2.05588 11.98065,3.45941 12.3211,3.11895 0.34046,-0.34046 -2.64128,-5.29326 -6.62608,-11.00623 -28.37676,-40.68348 -39.69001,-59.51284 -59.27784,-98.65998 l -11.95139,-22.29537 0.24488,-17.30433 -0.19707,-21.72374 4.37795,9.60875 c 11.64838,25.56598 30.9009,69.13642 46.8212,98.47856 14.69578,27.08528 39.18392,69.16864 41.29073,70.48235 0.67596,0.4215 1.63579,2.46534 1.40377,3.89371 -0.30812,1.89676 -3.11504,1.07643 -4.48448,0.30952 z M 145.625,540.53786 c -17.37184,-9.36727 -36.20884,-15.13571 -62.5,-19.13932 -17.600218,-2.68015 -50.926229,-5.19619 -68.4375,-5.16685 L 3.75,516.25 l 0,-6.73815 c 0,-14.32795 8.703468,-40.5474 27.70887,-83.47379 l 7.565137,-17.08692 7.359713,0.21192 c 4.047841,0.11663 7.361189,0.41661 7.362996,0.66678 0.0018,0.25016 -4.998116,11.78141 -11.110937,25.625 -13.56085,30.711 -18.780813,44.06277 -23.279562,59.54516 -1.897798,6.53125 -3.721267,12.59576 -4.052154,13.47669 -0.479865,1.27756 2.780225,1.43511 16.109662,0.7785 42.660019,-2.10143 81.864005,5.9292 114.523775,23.45928 10.54282,5.65884 11.5625,6.52934 11.5625,9.87084 0,2.01558 -0.42188,3.5927 -0.9375,3.50473 -0.51563,-0.088 -5.4375,-2.58645 -10.9375,-5.55218 z M 252.71014,540 c 0.24904,-1.03125 4.19255,-13.40625 8.76336,-27.5 4.57081,-14.09375 8.8541,-28.15625 9.51841,-31.25 1.08495,-5.05259 1.22314,-4.32794 1.35798,7.12103 l 0.15011,12.74603 -8.89583,19.12897 C 255.43169,537.81957 251.52674,544.90036 252.71014,540 Z m -130.36601,-59.98291 8.28087,-16.2329 5.3379,-0.0171 5.33791,-0.0171 -2.67767,5.3125 C 132.35569,481.4971 119.72749,496.25 115.35115,496.25 c -0.70834,0 2.43851,-7.30481 6.99298,-16.23291 z m 89.25942,-68.49842 c -24.99233,-8.87637 -45.75165,-27.338 -56.55875,-50.96027 -5.98028,-13.07174 -4.51379,-13.35426 3.41776,-5.70131 4.00036,3.85985 14.56093,13.43497 23.46791,21.27804 23.15624,20.39028 41.0916,37.61919 39.12978,37.58851 -0.92689,-0.0145 -4.98795,-0.61783 -9.4567,-2.20497 z m 93.54618,-34.2061 c 9.89657,-9.66513 30.96505,-28.00754 30.56447,-26.90966 -4.50942,12.35893 -9.24392,24.06257 -26.18448,42.04186 -14.29978,14.92252 -30.72602,17.5589 -38.29838,19.31025 0,0 24.37658,-25.03099 33.91839,-34.44245 z M 82.51974,337.14717 c -0.01074,-5.97492 -0.95314,-10.26035 0.0019,-12.95592 4.465392,-5.61969 7.6107,-9.39707 12.040826,-16.12875 0.470441,4.62211 1.02776,10.87695 0.420303,15.86413 -0.457728,3.3553 -2.247057,5.43017 -6.156183,12.62567 l -6.28714,11.5727 z m 272.77148,-28.8093 c -0.51511,-7.7413 -2.39655,-6.58787 2.78112,-13.22661 2.84771,-3.6513 6.80662,-8.48492 7.42257,-9.36639 2.18164,-3.12208 -8.10404,-13.36646 -25.49491,-25.39251 -3.09375,-2.13937 -8.98239,-7.3126 -13.08588,-11.49606 l -7.46086,-7.6063 6.27794,0 c 8.45544,0 15.59945,3.74271 32.00378,16.76659 13.15392,10.4433 23.51502,21.62367 23.51502,25.37442 0,2.37618 -8.826,14.69135 -17.87885,24.94686 l -7.55839,7.83789 z M 129.0757,298.72796 c -3.69269,-4.33508 -7.43482,-9.9094 -8.64393,-12.11727 -2.18914,-3.99744 -2.18225,-4.03682 1.64107,-9.375 7.56528,-10.56278 40.15171,-36.00351 46.10006,-35.99103 4.89771,0.0665 2.20744,1.74808 -3.27025,7.63034 -3.68124,3.95312 -8.42659,10.07939 -10.7744,13.61392 -2.3478,3.53453 -8.16925,8.36504 -11.63793,11.26918 -8.5952,7.19631 -9.50355,9.15917 -6.3124,13.64069 1.18863,1.66926 3.80802,3.67858 3.51251,5.16066 -0.33411,1.67567 -0.96418,3.01907 -1.72555,6.70036 l -1.64813,7.96887 z m 93.2625,-72.43455 c 12.58369,-3.01657 35.24185,-3.73248 47.49076,-1.13586 9.73747,2.06424 20.60473,8.51175 28.6986,13.69365 l 5.84744,3.74368 -20,-0.98494 c -22.39577,-1.10293 -82.63124,-0.8976 -89.375,0.30465 -2.9595,0.5276 -4.47057,0.49355 -3.625,-0.36661 9.50074,-6.60189 20.04637,-12.42097 30.9632,-15.25457 z M 388.1161,186.6045 c -2.05761,-1.04966 -4.8661,-2.90526 -6.2411,-4.12354 -1.375,-1.21827 -7.28125,-4.62585 -13.125,-7.57238 -10.18874,-5.13738 -11.35155,-5.42073 -28.31995,-6.90108 -9.73222,-0.84904 -18.8137,-2.14245 -20.18105,-2.87424 -1.36736,-0.73179 -5.63901,-1.70108 -9.49255,-2.154 -3.85355,-0.4529 -7.00645,-1.28212 -7.00645,-1.84271 0,-0.56059 1.95554,-1.94721 4.34562,-3.08139 5.38319,-2.55448 12.77218,-10.58512 15.29507,-16.62325 4.57772,-10.95604 0.45287,-25.67026 -8.47264,-30.22372 -5.7155,-2.91583 -12.43624,-3.15939 -17.33123,-0.62809 -7.67738,3.97014 -12.12306,12.58168 -14.53868,28.16237 l -0.87093,5.61747 3.7879,-4.05497 c 2.08335,-2.23023 4.82786,-3.98972 6.0989,-3.90997 1.91821,0.12037 1.96101,0.23796 0.25178,0.69195 -2.61019,0.69329 -3.81313,5.11525 -2.20764,8.11514 2.72209,5.08626 7.34432,0.55577 5.46716,-5.35863 -0.53696,-1.69185 -0.37371,-2.36641 0.44958,-1.85759 0.711,0.43943 1.90863,2.75987 2.69961,5.15654 1.74759,5.29527 -0.13576,12.43695 -3.8335,14.41593 -2.38528,1.27656 -14.14868,-0.54186 -24.891,-3.84773 -7.25634,-2.23307 -42.16766,-3.01187 -56.87578,-1.26877 -7.25373,0.85966 -14.50917,1.23158 -16.12318,0.82648 -3.70224,-0.9292 -6.31878,-6.99211 -5.27337,-12.21917 1.11265,-5.56328 2.9601,-7.29915 7.76828,-7.29915 3.44145,0 4.55602,0.70811 6.23985,3.96426 1.85131,3.58005 2.17337,3.74383 3.32287,1.68978 1.76328,-3.15082 0.2695,-18.60691 -2.13877,-22.2824 -7.33041,-11.18762 -24.58566,-10.29774 -30.79076,1.86527 -5.52767,10.8351 -5.18385,26.0269 0.79343,35.05919 2.24522,3.39275 2.68935,4.89546 1.54978,5.24361 -0.87854,0.26839 -9.47235,2.84199 -19.09735,5.7191 -20.44523,6.1115 -33.63065,12.17676 -40.07291,18.43339 l -4.60423,4.47157 -2.42951,-3.01938 c -2.86969,-3.56645 -6.01835,-10.31017 -6.01835,-12.88995 0,-1.00423 -0.78958,-2.94418 0.0787,-3.85265 0.86828,-0.90849 2.28394,-3.39553 3.45145,-5.22121 1.48688,-2.3251 5.38267,-2.94953 8.91347,-3.54605 3.596,-0.60754 5.54858,-2.79094 7.43491,-5.44005 1.45431,-2.04238 2.65772,-3.07488 2.36871,-3.36389 -0.28901,-0.28901 -4.53099,1.96724 -9.42663,5.01387 l -8.90115,5.53935 -3.20974,-5.47698 c -1.76535,-3.01236 -3.20973,-7.27919 -3.20973,-9.48188 0,-4.12843 3.87134,-11.67143 6.5878,-12.83579 14.22334,-6.0966 22.92469,-9.58916 23.89035,-9.58916 2.14914,0 18.87256,-8.01195 19.80617,-9.48885 0.50013,-0.79116 3.46892,-4.84348 6.59729,-9.00515 7.25946,-9.657204 12.91541,-12.756 24.3842,-12.756 10.13938,0 16.78036,2.3275 27.15173,9.92021 4.2859,3.13763 9.77947,6.95063 12.20795,8.47331 4.03703,2.53129 4.30596,2.56403 3.13823,0.38212 -0.70245,-1.31252 -1.84582,-2.73785 -2.54083,-3.1674 -3.52207,-2.17675 1.9971,-2.94266 21.42718,-2.9735 21.35675,-0.0339 21.35675,-0.0339 25.91584,-3.52182 2.5075,-1.918357 8.18309,-5.316045 12.61243,-7.55042 12.58962,-6.35083 24.18508,-5.395729 41.16516,3.390714 7.24491,3.748926 16.17834,13.807956 19.55288,22.016546 1.84426,4.48619 3.05598,6.29659 3.07394,4.59274 0.037,-3.50472 0.24528,-3.49737 8.03009,0.28332 3.50603,1.70269 10.48865,3.95252 15.51695,4.9996 13.27414,2.76419 20.9611,6.3777 22.74893,10.69389 1.27464,3.07726 1.05164,4.49426 -1.60594,10.20458 -4.6565,10.00538 -4.65565,10.03123 0.44874,13.72883 6.01571,4.35775 6.7606,7.00583 4.32626,15.37967 -2.37487,8.16928 -4.81972,9.93012 -10.06924,7.25211 z m 6.34264,-3.43188 c 2.7906,-4.25899 3.62381,-12.03917 1.57397,-14.69707 -0.91173,-1.1822 -5.31396,-4.03631 -9.78271,-6.34247 -4.46875,-2.30617 -8.30688,-5.13578 -8.52915,-6.28805 -0.5073,-2.62967 3.20761,-2.73144 6.58056,-0.18028 2.93518,2.22006 4.44859,2.3408 4.44859,0.3549 0,-0.81419 1.16879,-3.89474 2.5973,-6.84565 1.42852,-2.95092 2.40812,-6.34767 2.1769,-7.54834 -0.65376,-3.39468 -8.38724,-4.93551 -20.99003,-7.84775 -6.32818,-1.46231 -14.25793,-6.17623 -16.75741,-7.45053 -4.5445,-2.31693 -4.5445,-2.31693 -5.29613,0.67785 -1.34243,5.34862 -6.66202,4.20268 -8.93445,-3.89623 -4.52731,-16.13517 -21.60801,-25.627561 -39.93396,-25.231676 -9.30219,0.20095 -19.98014,1.804653 -28.01676,9.553926 -4.91205,4.73641 -9.84546,3.85576 -9.84546,1.31875 0,-0.77615 -6.90524,-1.25 -18.21573,-1.25 l -18.21572,0 2.59072,3.29357 c 1.42491,1.81147 2.59073,4.06147 2.59073,5 0,2.30736 -3.06618,2.16155 -5.05979,-0.24061 -0.88875,-1.07088 -4.192,-3.43077 -7.34056,-5.2442 -3.14856,-1.81343 -9.3215,-3.07687 -12.20522,-5.40037 -13.8054,-11.123394 -24.57376,-6.408862 -38.39982,-0.83823 -2.72237,1.09687 -10.84409,7.39634 -15.45552,14.85984 -7.98034,12.91601 -11.53909,16.38204 -11.53909,11.23857 0,-1.28228 1.16582,-3.81353 2.59072,-5.625 1.4249,-1.81146 0,0 1.96874,-3.29357 0.17552,-0.29363 -7.61729,3.4312 -16.77822,6.86101 -13.66118,5.11468 -16.76174,6.43766 -20.09374,10.20826 -2.23437,2.52849 -3.1875,5.45094 -3.1875,6.49434 0,2.36209 -0.85404,6.99402 4.04901,11.30761 0.45429,-0.002 4.48224,-0.84103 8.95099,-3.54489 6.82173,-4.12757 8.40001,-4.64681 9.83949,-3.23709 2.75912,2.70205 -3.79523,10.35156 -10.31863,12.04276 -3.72369,0.96536 -5.54816,2.41229 -7.58336,5.56271 -3.5955,5.56569 -4.58457,8.17888 0.0231,13.44983 l 1.83564,2.09987 c 3.4525,1.6104 5.29381,-1.47198 6.1736,-2.5811 4.04724,-5.10221 15.61839,-12.40747 34.78013,-18.21607 9.96875,-3.02188 20.14609,-3.82356 20.78296,-4.37874 0.68658,-0.59851 0.30918,-1.94733 -0.92707,-3.31336 -2.8933,-3.19706 -9.23093,-16.70593 -8.32935,-25.33175 2.01886,-19.31549 20.5209,-27.87 36.34061,-21.54021 7.32115,2.92935 10.94478,12.06185 10.87609,24.36912 -0.0301,5.4064 -1.73248,12.05827 -2.70258,14.78196 -0.9701,2.72367 -3.0417,4.38138 -2.87506,4.548 0.16664,0.16664 14.54476,-2.52049 18.98779,-3.1626 17.22852,-2.48991 30.13354,-5.57622 46.63653,2.61438 l 9.1398,4.53617 -0.8303,-7.75331 c -1.49295,-13.94095 -0.16268,-30.43531 7.35317,-36.95275 9.19221,-7.97113 28.78271,-6.58288 35.66246,3.66098 3.3225,4.94718 3.06613,8.44715 3.03348,16.14276 -0.0275,6.48595 -1.08537,11.6568 -3.07552,15.42625 -2.82166,5.34439 -12.52406,13.40586 -15.07661,13.40586 -0.93125,0 -1.04791,0.42156 -0.3089,1.11621 2.23575,2.10155 17.81094,2.71069 32.19118,3.67084 14.0884,0.94066 16.74093,3.73904 28.76538,10.01044 6.74799,3.51945 14.06049,7.81104 16.25,9.53689 4.93172,3.88733 5.32254,3.89175 7.81468,0.0882 z m -7.0629,-23.62831 c -0.28647,-0.25062 -1.92709,-1.1254 -3.64584,-1.94395 -2.94659,-1.40331 -2.98648,-1.37728 -0.69859,0.45568 1.99125,1.59532 6.05983,2.9891 4.34443,1.48827 z M 203.125,140 c 0,-3.05536 -0.61614,-4.45942 -2.0807,-4.74148 -2.46621,-0.47493 -4.07745,3.59249 -2.89674,7.31257 1.37089,4.31928 4.97744,2.45633 4.97744,-2.57109 z"
       style="fill:#090705" />
    <text
       id="text3652"
       y="338.43143"
       x="172.57561"
       style="font-style:normal;font-weight:normal;font-size:40px;line-height:125%;font-family:sans-serif;letter-spacing:0px;word-spacing:0px;fill:#000000;fill-opacity:1;stroke:none;stroke-width:1px;stroke-linecap:butt;stroke-linejoin:miter;stroke-opacity:1"
       xml:space="preserve"><tspan
         y="338.43143"
         x="172.57561"
         id="tspan3654" /></text>
    <path
       id="path3429"
       d="m 44.801956,402.63025 c -21.87672,6.75276 -31.5873,9.22936 -32.91184,8.39386 -5.40648,-3.41032 -10.21221,-22.07879 -6.03027,-23.42534 0.85938,-0.27672 18.4375,-5.76038 39.0625,-12.18593 l 37.5,-11.68282 13.46236,-4.31581 c 0.1582,-0.009 3.853384,-1.13387 8.211514,-2.5 9.31757,-2.92076 12.7071,-3.23985 10.45113,-0.98387 -1.67334,1.67334 -1.84987,7.79666 -0.33513,11.625 0.54404,1.375 0.75716,3.1208 0.47361,3.87956 -0.0951,0.25447 -2.80643,1.30937 -7.44323,2.93364 -9.188742,3.21883 -25.939058,8.67367 -44.875134,14.56636 -31.942707,9.94021 -51.80612,16.71946 -51.81146,17.68294 -0.005,0.85937 0.41322,1.58876 0.92884,1.62087 0.51563,0.0321 24.13825,-7.13977 52.49473,-15.9375 31.83982,-9.87846 51.559234,-16.59343 51.562494,-17.55837 0.007,-1.91085 2.05216,-2.05692 3.18295,-0.22729 0.45386,0.73438 1.61206,1.03328 2.57377,0.66424 2.17105,-0.83311 2.29635,0.9977 0.18606,2.71871 -0.85937,0.70085 -6.90625,2.90939 -13.4375,4.90785 0,0 -15.640094,5.15814 -63.245394,19.8239 z M 133.1073,360.12758 c -1.08506,-1.30743 -1.1987,-2.90108 -0.38098,-5.34272 l 1.16533,-3.47952 0.90845,4.81522 c 1.03675,5.49524 0.53264,6.6885 -1.6928,4.00702 z"
       style="fill:#606062" />
    <path
       id="path3423"
       d="m 7.3485744,400.85606 c -0.3435766,-0.56964 -1.0014583,-2.76158 -1.4619636,-4.87101 -0.7206994,-3.30133 -0.526593,-3.76093 1.3941524,-3.30104 1.2272789,0.29387 24.9459448,-6.45587 52.7081448,-14.99938 48.060042,-14.78995 50.522742,-15.4179 51.437622,-13.11563 0.52849,1.3299 0.52849,2.79713 0,3.26047 -0.52849,0.46337 -23.675421,7.7737 -51.437622,16.2452 -27.7622,8.4715 -50.8229841,15.94595 -51.246191,16.6099 -0.4232067,0.66395 -1.0505758,0.74113 -1.3941426,0.17149 z M 116.32712,375.53881 c -0.0753,-0.62221 0.67813,-1.26353 1.80496,-0.40835 2.49569,1.49607 2.40873,2.2444 1.28845,2.32631 -0.93722,0.17702 -2.95268,-0.75472 -3.09341,-1.91796 z m -5.53317,-18.33927 c 0,-1.11996 0.72483,-1.74135 1.92248,-1.73106 1.22951,0.0109 0.8092,0.65551 0.72447,0.84336 -0.32736,0.68391 -0.57493,1.79223 -1.08278,2.39396 -0.50784,0.60173 -1.56417,-0.39817 -1.56417,-1.50626 z"
       style="fill:#090705" />
  </g>
  <g
     id="layer2" />
  <path
     style="fill:#dddddd;fill-opacity:1;fill-rule:evenodd;stroke:none;stroke-width:1px;stroke-linecap:butt;stroke-linejoin:miter;stroke-opacity:1"
     d="m 249.29102,211.42383 c -13.4348,-0.15456 -28.27911,2.3144 -44.50586,8.58398 -86.54269,33.43779 -68.96354,126.09708 -68.96354,126.09708 1.6225,6.1136 -20.12108,5.39754 -21.77287,8.47423 -3.69041,6.87389 1.31515,14.94071 -0.0693,15.40035 -88.133926,29.26021 -108.4004166,32.46779 -103.418893,37.27444 1.512641,1.45954 105.320743,-32.43747 105.203123,-33.3086 -0.25248,-1.86992 1.11071,-2.10105 2.18405,-0.77145 1.6368,2.02757 4.80373,1.40533 4.80373,1.40533 3.60629,-0.0843 7.68415,-4.11379 12.55377,-5.38974 4.78358,-1.2534 8.62837,-1.01172 8.62837,-1.01172 0,0 44.86987,89.73377 139.99414,53.57422 100.74354,-38.2956 69.12313,-145.98724 58.48438,-156.11133 -3.46204,-3.29456 -34.90363,-53.54706 -93.12109,-54.21679 z m -4.42383,12.99414 c 110.37441,15.7442 108.57789,118.94845 71.65429,158.08984 -24.52848,26.00176 -63.30939,39.18083 -98.05173,29.76061 -66.79556,-18.11129 -71.25508,-81.89213 -69.2803,-92.36803 2.1484,-11.39693 11.57054,-85.85658 90.80469,-95.43359 1.64764,-0.0448 3.28787,-0.27495 4.87305,-0.0488 z"
     id="path4864" />
  <path
     style="fill:#ffffff;fill-opacity:1;fill-rule:evenodd;stroke:none;stroke-width:1px;stroke-linecap:butt;stroke-linejoin:miter;stroke-opacity:1"
     d="m 152.45403,287.35892 c 0.047,-14.21869 1.28517,-20.25406 4.43442,-27.57121 5.81294,-9.64851 20.75561,-15.85762 24.24973,-16.38428 -7.70454,7.45971 -13.02448,13.96614 -16.5191,18.45541 -4.07528,5.23523 -7.15438,11.83358 -12.16505,25.50008 z"
     id="path4878" />
  <path
     id="path4880"
     d="m 326.71454,376.61962 c -1.49612,11.36077 19.12009,-8.74996 14.83801,-3.55776 -17.48802,21.20496 -24.4479,30.49841 -47.5994,42.78273 -9.23604,4.90071 -33.70582,12.7257 -54.97154,12.19903 -2.06641,-2.04965 26.08379,-4.07654 5.17546,-9.68185 17.07291,-1.65012 29.06318,-3.3892 45.91707,-11.96849 21.55301,-10.97131 33.98367,-26.05849 36.6404,-29.77366 z"
     style="fill:#ffffff;fill-opacity:1;fill-rule:evenodd;stroke:none;stroke-width:1px;stroke-linecap:butt;stroke-linejoin:miter;stroke-opacity:1" />
  <path
     style="fill:#979797;fill-opacity:1;fill-rule:evenodd;stroke:none;stroke-width:1px;stroke-linecap:butt;stroke-linejoin:miter;stroke-opacity:1"
     d="M 113.39096,369.6748 C 16.203289,401.62754 9.8158962,402.12674 9.4324612,406.52536 c 0.423352,0.90737 2.2641598,1.66568 4.9171418,0.87686 40.137754,-11.93428 85.639324,-27.47585 101.750567,-33.39042 -1.12878,-2.44937 2.86702,0.28207 3.63813,0.6308 1.16864,0.42204 3.42457,0.0394 4.69807,-0.35377 -7.60345,-3.001 -8.32436,-4.77982 -9.97136,-20.90764 -1.82974,3.36781 -2.77669,7.66858 -1.07405,16.29361 z"
     id="path4882" />
  <path
     style="fill:#9b9d9e"
     d="m 136.72803,345.3902 c 0.0909,1.375 0.82439,2.92522 1.63004,3.44495 0.80565,0.51971 1.85015,2.69936 2.32113,4.84365 1.05236,4.79141 -1.6069,7.23361 -4.22007,3.87557 -1.47077,-1.88998 -1.57192,-1.60989 -0.79838,2.21083 0.93743,4.63032 3.83117,8.76278 6.11375,8.73086 0.75281,-0.01 0.52501,-0.57302 -0.50624,-1.25 -1.66666,-1.0941 -1.66666,-1.36762 0,-2.46172 2.41065,-1.5825 3.71003,-1.58887 3.90624,-0.0191 0.0859,0.6875 0.22982,1.67188 0.31975,2.1875 z m -17.50775,27.49997 c -0.84278,-2.19625 2.24429,-2.52688 5.80428,-0.62163 1.57864,0.84487 2.60069,0.83478 3.13574,-0.031 0.43657,-0.70639 0.33009,-1.12978 -0.23664,-0.94088 -0.56672,0.18891 -1.27166,-0.21903 -1.56652,-0.90653 -0.29487,-0.6875 0.54888,-1.4585 1.875,-1.71335 1.32611,-0.25483 3.77417,-0.98107 5.44011,-1.61386 2.77601,-1.05444 2.86202,-1.31749 1.02986,-3.14965 -1.67421,-1.67421 -2.87101,-1.77781 -7.36366,-0.63746 -2.95049,0.74891 -5.65001,1.07617 -5.99894,0.72725 -0.34893,-0.34894 -0.64834,-3.04145 -0.66534,-5.98337 -0.0259,-4.48756 -3.02938,-1.29208 -4.88095,-0.81129 -1.21384,0.31519 0.13437,-2.90334 -0.23437,-2.30671 -0.36875,0.59664 0.12405,0.77993 1.09508,0.4073 1.25818,-0.4828 1.98177,0.65503 2.51802,3.95958 0.90402,5.57081 0.11985,7.17505 -3.09613,6.33405 -1.9889,-0.5201 -2.26619,-0.15671 -1.58607,2.07861 0.73994,2.43198 4.06148,7.0839 5.058,7.0839 0.21562,0 0.0683,-0.84375 -0.32747,-1.875 z m 15.79798,-21.32377 c 0,-1.75933 -0.50969,-2.88377 -1.13265,-2.49875 -0.62296,0.38501 -0.8386,1.82445 -0.47921,3.19877 0.89943,3.43944 1.61186,3.13004 1.61186,-0.70002 z m -7.83855,1.19356 c -0.41537,-0.41536 -1.4935,-0.45976 -2.39583,-0.0986 -0.99717,0.39903 -0.70098,0.69523 0.75521,0.7552 1.3177,0.0542 2.05599,-0.24116 1.64062,-0.65652 z"
     id="path3468" />
  <path
     style="fill:#ffffff;fill-opacity:1;fill-rule:evenodd;stroke:none;stroke-width:1px;stroke-linecap:butt;stroke-linejoin:miter;stroke-opacity:1"
     d="m 116.67008,368.47571 c 1.51037,-1.36017 13.49402,-3.27638 13.96055,-3.29514 2.58206,-0.10381 6.79806,0.21106 1.78007,1.09889 -8.5329,1.50972 -9.46156,2.07722 -15.62319,3.43164 -1.2231,0.26886 -1.048,-0.39736 -0.11743,-1.23539 z"
     id="path4909" />
  <path
     style="fill:#ffffff;fill-opacity:1;fill-rule:evenodd;stroke:none;stroke-width:1px;stroke-linecap:butt;stroke-linejoin:miter;stroke-opacity:1"
     d="m 140.90409,360.60024 c -1.11106,-0.97607 -1.9285,0.0692 -1.91102,0.5513 0.037,1.02078 0.6165,1.64242 1.35098,1.82353 0.57572,0.14196 1.53935,0.60045 1.60208,-0.77321 0.0176,-0.38542 -0.48049,-1.10829 -1.04204,-1.60162 z"
     id="path4911" />
  <text
     xml:space="preserve"
     style="font-style:normal;font-weight:normal;font-size:54.33551025px;line-height:125%;font-family:sans-serif;letter-spacing:0px;word-spacing:0px;fill:#d40000;fill-opacity:1;stroke:#ffffff;stroke-width:2.77366376;stroke-linecap:butt;stroke-linejoin:miter;stroke-miterlimit:4;stroke-dasharray:none;stroke-opacity:1"
     x="186.19559"
     y="264.21338"
     id="text4913"
     transform="scale(0.78344507,1.2764137)"><tspan
       id="tspan4915"
       x="186.19559"
       y="264.21338"
       style="font-style:normal;font-variant:normal;font-weight:normal;font-stretch:normal;font-family:'Cooper Black';-inkscape-font-specification:'Cooper Black, ';fill:#d40000;fill-opacity:1;stroke:#ffffff;stroke-width:2.77366376;stroke-linejoin:miter;stroke-miterlimit:4;stroke-dasharray:none;stroke-opacity:1">S.U.P.E.R</tspan></text>
  <path
     id="path3790"
     d="m 340.99022,326.44586 c 0,55.48062 -42.75924,98.5895 -95.88928,98.58949 -53.13005,0 -95.18214,-42.78391 -95.5781,-97.34479 -0.34154,-47.06145 37.15806,-104.19065 95.5781,-103.56831 53.12703,0.56597 95.88928,46.84299 95.88928,102.32361 z"
     style="opacity:0.87699998;fill:url(#radialGradient4931);fill-opacity:1;stroke:none;stroke-width:4.57396269;stroke-opacity:1" />
  <path
     id="path3369"
     d="m 157.92174,286.43737 c 0,0 -11.66909,33.29581 -7.31264,53.98901 6.6339,31.51108 -11.66909,-25.04966 -11.66909,-25.04966 0,0 0.62235,-17.58143 18.98173,-28.93935 z"
     style="fill:#dddddd;fill-opacity:1;fill-rule:evenodd;stroke:none;stroke-width:1px;stroke-linecap:butt;stroke-linejoin:miter;stroke-opacity:1" />
  <path
     id="path4171"
     d="m 332.25217,284.07235 c 0,0 12.98204,23.76373 3.52056,62.70985 -9.46149,38.94612 17.38273,-10.12159 17.38273,-10.12159 0,0 1.3202,-57.42902 -20.90329,-52.58826 z"
     style="fill:#dddddd;fill-rule:evenodd;stroke:none;stroke-width:1px;stroke-linecap:butt;stroke-linejoin:miter;stroke-opacity:1;fill-opacity:1" />
</svg>
