<?xml version="1.0" encoding="UTF-8" standalone="no"?><svg id="svg3336" xmlns:rdf="http://www.w3.org/1999/02/22-rdf-syntax-ns#" xmlns="http://www.w3.org/2000/svg" xmlns:osb="http://www.openswatchbook.org/uri/2009/osb" height="587.5" viewBox="0 0 500 587.5" width="500" version="1.1" xmlns:cc="http://creativecommons.org/ns#" xmlns:xlink="http://www.w3.org/1999/xlink" xmlns:dc="http://purl.org/dc/elements/1.1/"><defs id="defs3340"><radialGradient id="radialGradient4931" gradientUnits="userSpaceOnUse" cy="93" cx="-21" gradientTransform="matrix(0.962 1.9517 -1.924 .99536 391.01 236.67)" r="53"><stop id="stop4923" stop-color="#fff" offset="0"/><stop id="stop4925" stop-color="#fff" stop-opacity="0" offset="1"/></radialGradient></defs><g id="g3630" transform="translate(-.25 -1)"><path id="path3644" fill="#a3c538" d="m214.94 573.23c-3.4375-0.64846-7.9375-1.0702-10-0.9372-16.862 1.0874-22.518 0.51527-28.266-2.8593-7.0483-4.1376-12.836-10.54-15.041-16.639-1.311-3.6256-3.3602-5.5703-9.8848-9.3809-16.426-9.5931-38.302-16.968-62.506-21.073-16.36-2.7741-59.283-6.3882-75.871-6.3882h-9.773l0.84977-9.6875c1.5382-17.536 8.2756-37.769 25.393-76.259 5.2106-11.717 9.4738-21.58 9.4738-21.919 0-2.1482-5.4921-1.7271-15.106 1.1583-5.1217 2.3047-9.1516 2.2441-12.106 0.78761-8.9449-4.4093-8.0347-21.612 2.2709-24.705l0.28337-83.125 0.28336-83.125 3.5434-5.9155c6.8738-11.475 16.667-17.155 29.582-17.155 13.883 0 24.89 6.9122 30.766 19.32 2.9597 6.25 2.9597 6.25 2.9719 57.812 0.007 28.359 0.43409 51.54 0.94971 51.512 0.51563-0.028 3.8906-4.5329 7.5-10.011l6.5625-9.9602v-51.864-51.864h153.75 153.75l-0.0134 92.188-0.0134 92.188 7.7938 19.375c99.987 260.12-9.0542-59.767-71.2 144.17-1.8607 6.9518-6.0847 12.98-12.55 17.912-10.737 8.1896-23.166 8.9684-36.04 2.2584l-8.4546-4.4068-10.194 3.6885c-16.429 5.9446-41.902 8.0717-58.704 4.902zm47.383-144.82c21.73-3.141 44.765-14.285 60.585-29.311 15.14-14.38 28.406-46.538 28.406-46.538s6.203-27.186 3.8072-45.985c-3.1144-24.437-9.6548-37.973-27.478-56.869-12.953-13.733-23.856-21.655-37.783-27.452-41.592-17.315-91.263-8.211-120.99 22.175-25.155 25.672-39.22 62.409-32.08 97.153 1.3035 5.7137 0.36499 7.4232 0.36499 7.4232s-0.53137 2.0559-7.3534 3.749c-1.9432 0.48773-5.4199 1.1283-7.7258 1.4236-11.78 0.23654-8.7821 5.1781-11.822 5.6235-0.28355 0.75875-26.381 7.0441-54.873 15.91-9.0396 3.6294-72.778 13.243-43.883 32.804 0.51563 0.0321 24.138-7.1398 52.495-15.938 31.84-9.8785 51.559-16.593 51.562-17.558 0.006-1.8484 2.0381-2.0797 3.105-0.35344 0.92136 1.4908 8.0981 0.2524 10.65-1.8378 1.0312-0.84455 3.4219-1.903 5.3125-2.3522 4.44-1.2603 5.4489-1.5889 8.9667-1.3941 1.5657 0 3.7455 2.2521 6.25 6.4574 13.169 22.111 35.41 39.9 59.888 47.9 17.683 5.7787 35.409 7.454 52.59 4.9705zm-37.054-13.667c-13.516-2.4513-29.049-9.1994-40.262-17.491-8.9011-6.5819-21.064-19.943-24.368-26.768-2.7643-4.8978-4.7371-9.1931-6.5018-13.726-1.0556-2.4032-2.85-6.6468-2.85-6.6468s-17.688-58.881 31.543-101.19c3.2231-2.5916 7.2433-6.0466 8.9338-7.6779 12.218-8.8655 23.878-13.156 37.131-16.033 10.441-2.4584 33.41-1.7402 44.745 1.3993 18.457 5.1123 43.696 26.565 43.696 26.565-23.25-17.5 52.656 29.194 12.716 112.03-3.6052 7.3728-24.541 32.422-31.362 36.131-8.6538 5.6046-19.795 7.9683-28.271 10.776-5.7752 2.2152-8.8323 4.4172-21.919 4.7296-8.9375 0.21334-19.975-1.5096-23.231-2.1002zm219.67-7.3857c-5.6252-1.4852-13.407-5.7848-16.454-9.091-1.4872-1.6138-4.159-5.6898-5.9375-9.0578l-3.2336-6.1237 0.0275-80.751c0.0266-78.502 0.0983-80.908 2.5707-86.376 5.6862-12.576 17.251-19.986 31.152-19.96 12.925 0.0242 22.715 5.7071 29.582 17.17l3.5434 5.9155 0.35509 80.625c0.38921 88.374 0.62256 85.215-7.0812 95.843-6.6464 9.1686-23.146 14.812-34.524 11.808zm-338.44-219.89-9.6875-0.36508v-5.3428c0-14.215 5.4323-35.41 12.966-50.59 13.46-27.121 34.627-49.315 61.67-64.664l4.0108-2.2764-5.4507-10.074c-2.9979-5.5405-8.5996-15.63-12.448-22.421-3.8486-6.7913-6.9975-13.418-6.9975-14.727 0-2.8168 3.3492-4.4203 5.8732-2.812 1.4972 0.95407 24.438 40.821 25.744 44.737 0.25102 0.75307 7.1-0.89108 16.593-3.9832 12.493-4.0695 20.211-5.7217 33.978-7.2736 16.358-1.844 19.267-1.844 35.625 0 13.766 1.5519 21.484 3.2041 33.978 7.2736 9.4927 3.0921 16.342 4.7363 16.593 3.9832 1.3055-3.9166 24.247-43.783 25.744-44.737 2.524-1.6084 5.8732-0.005 5.8732 2.812 0 1.3084-3.1489 7.9355-6.9975 14.727-3.8486 6.7913-9.4504 16.881-12.448 22.421l-5.4507 10.074 4.0108 2.2764c18.272 10.37 38.906 28.746 49.915 44.452 7.9086 11.282 15.12 25.503 18.387 36.259 3.3275 10.955 6.3289 27.395 6.3312 34.678 0.002 5.3125 0.002 5.3125-5.3108 5.331-103.47 0.36122-285.34 0.5113-292.5 0.24137zm219.29-59.903c-1.153-11.171-10.05-19.107-20.549-19.107-19.723 2.0381-19.07 13.067-23.097 29.446-2.9216 20.205-0.19137 18.815 23.812 23.605 10.938-9.3733 21.001-19.795 19.833-33.943zm-133.62 28.21c5.5888-2.3939 13.44-1.7891 14.058-5.0859 7.846-6.8301 7.497-33.788-1.3667-39.845-6.4556-4.336-16.668-2.7176-23.048 0.37073-13.647 10.086-13.927 29.907-6.8793 42.068 3.8012 6.4666 5.1444 5.5204 17.235 2.493z"/><path id="path3636" fill="#d40000" d="m226.38 572.77c-1.375-0.21238-7.793 0.75393-11.818 0.314l-7.3178-0.79986 6.8254-6.0834c4.3556-3.8821 7.9083-8.4799 9.8178-12.706 2.9341-6.4938 3-7.433 3.3814-48.185l0.38899-41.562h22.347 22.347l0.38899 41.562c0.37668 40.245 0.47966 41.759 3.2492 47.767 1.5731 3.4124 3.8008 7.2436 4.9503 8.5138 2.6403 2.9175 1.8141 3.5008-10.936 7.7208-13.211 4.3727-32.466 5.1831-43.625 3.4594zm267.38-3.9717c-1.9759-1.1066-36.115-10.719-56.25-15.838-16.619-4.2249-39.784-8.8086-53.448-10.576-11.314-1.4631-34.965-1.0112-39.364 0.75212-2.056 0.82403-2.1875-1.526-2.1875-39.094v-39.971l16.562-0.58057c14.721-0.516 17.349-0.95543 23.639-3.9514 8.13-3.8726 15.168-11.068 18.968-19.391 2.2846-5.0048 2.7023-8.7051 3.1217-27.653l0.48417-21.875 2.4524 6.25c9.1612 23.348 30.646 68.441 46.752 98.125 14.696 27.085 38.654 67.578 40.76 68.891 0.67596 0.4215 1.0392 1.935 0.80715 3.3634-0.30811 1.8968-0.92742 2.3139-2.2969 1.547zm-348.14-28.26c-17.372-9.3673-37.209-18.136-63.5-22.139-17.6-2.6802-49.926-2.1962-67.438-2.1668l-10.68-1.73-0.25-4.99c-0.71668-14.3 8.7051-40.551 27.673-83.393l7.5293-17.006 8.3363 0.0418c6.5748 0.0329 9.6722-0.64438 14.658-3.2053 6.081-3.12 15.553-11.56 15.553-13.86 0-0.60922 0.84375-0.78391 1.875-0.38817 1.0312 0.39572 1.8754 0.31527 1.8759-0.17877 0.000487-0.49405 1.3648-0.97678 3.0318-1.0727 1.667-0.096 4.7182-1.0162 6.7803-2.0449l3.7494-1.8704 0.41481 23.92c0.38055 21.944 0.65812 24.46 3.3604 30.454 3.4628 7.6812 11.737 15.75 19.943 19.448 4.7226 2.1282 9.0241 2.7345 22.407 3.1584l16.562 0.52458v41.105c0 22.608-0.42188 41.033-0.9375 40.945-0.51563-0.088-5.4375-2.5864-10.938-5.5522zm-63.12-195.58v-18.79l5.738-8.7097c3.156-4.79 5.968-8.71 6.25-8.71s0.512 11.48 0.512 25.51v25.508l-5.8477 1.9925c-3.2162 1.0959-6.0287 1.9925-6.25 1.9925-0.221 0-0.402-8.46-0.402-18.79zm305.62-158.36c-2.0576-1.0497-4.8661-2.9053-6.2411-4.1235-1.375-1.2183-7.2812-4.6258-13.125-7.5724-10.189-5.1374-11.352-5.4207-28.32-6.9011-9.7322-0.84904-18.814-2.1424-20.181-2.8742-1.3674-0.73179-5.639-1.7011-9.4926-2.154s-7.0064-1.2821-7.0064-1.8427c0-0.56059 1.9555-1.9472 4.3456-3.0814 5.3832-2.5545 12.772-10.585 15.295-16.623 4.5777-10.956 0.45287-25.67-8.4726-30.224-5.7155-2.9158-12.436-3.1594-17.331-0.62809-7.6774 3.9701-12.123 12.582-14.539 28.162l-0.87093 5.6175 3.7879-4.055c2.0834-2.2302 4.8279-3.9897 6.0989-3.91 1.9182 0.12037 1.961 0.23796 0.25178 0.69195-2.6102 0.69329-3.8131 5.1152-2.2076 8.1151 2.7221 5.0863 7.3443 0.55577 5.4672-5.3586-0.53696-1.6918-0.37371-2.3664 0.44958-1.8576 0.711 0.43943 1.9399 2.7599 2.7309 5.1565 1.7476 5.2953-0.16701 12.437-3.8648 14.416-2.3853 1.2766-14.149-0.54186-24.891-3.8477-7.2563-2.2331-42.168-3.0119-56.876-1.2688-7.2537 0.85966-14.509 1.2316-16.123 0.82648-3.7022-0.9292-6.3188-6.9921-5.2734-12.219 1.1126-5.5633 2.9601-7.2992 7.7683-7.2992 3.4414 0 4.556 0.70811 6.2398 3.9643 1.8513 3.58 2.1734 3.7438 3.3229 1.6898 1.7633-3.1508 0.2695-18.96-2.1388-22.636-7.3304-11.188-24.586-9.9442-30.791 2.2188-5.5277 10.835-5.1838 26.027 0.79343 35.059 2.2452 3.3928 2.6894 4.8955 1.5498 5.2436-0.87854 0.26839-9.4724 2.842-19.097 5.7191-20.445 6.1115-33.631 12.177-40.073 18.433l-4.6042 4.4716-2.4295-3.0194c-2.8697-3.5664-6.0184-10.31-6.0184-12.89 0-1.0042 0.71042-2.5692 1.5787-3.4776 0.86828-0.90849 2.5339-3.1455 3.7014-4.9712 1.4869-2.3251 3.6327-3.5745 7.1635-4.171 3.596-0.60754 5.7986-1.9159 7.6849-4.565 1.4543-2.0424 2.4077-3.9499 2.1187-4.2389-0.28901-0.28901-4.531 1.9672-9.4266 5.0139l-8.9012 5.5394-3.2097-5.477c-1.7654-3.0124-3.2097-7.2792-3.2097-9.4819 0-4.1284 3.8713-11.671 6.5878-12.836 14.223-6.0966 22.925-9.5892 23.89-9.5892 2.1491 0 18.873-8.012 19.806-9.4888 0.50013-0.79116 3.4689-4.8435 6.5973-9.0052 7.2595-9.6572 13.269-12.756 24.738-12.756 10.139 0 16.427 2.3275 26.798 9.9202 4.2859 3.1376 9.7795 6.9506 12.208 8.4733 4.037 2.5313 4.306 2.564 3.1382 0.38212-0.70245-1.3125-1.8458-2.7378-2.5408-3.1674-3.5221-2.1768 1.9971-2.9427 21.427-2.9735 21.357-0.0339 21.357-0.0339 25.916-3.5218 2.5075-1.9184 8.1831-5.316 12.612-7.5504 12.59-6.3508 24.185-5.3957 41.165 3.3907 7.2449 3.7489 16.178 13.808 19.553 22.017 1.8443 4.4862 3.056 6.2966 3.0739 4.5927 0.037-3.5047 0.24528-3.4974 8.0301 0.28332 3.506 1.7027 10.489 3.9525 15.517 4.9996 13.274 2.7642 20.961 6.3777 22.749 10.694 1.2746 3.0773 1.0516 4.4943-1.6059 10.205-4.6565 10.005-4.6556 10.031 0.44874 13.729 6.0157 4.3578 6.7606 7.0058 4.3263 15.38-2.3749 8.1693-4.8197 9.9301-10.069 7.2521zm-0.72026-27.06c-0.28647-0.25062-1.9271-1.1254-3.6458-1.944-2.9466-1.4033-2.9865-1.3773-0.69859 0.45568 1.9912 1.5953 6.0598 2.9891 4.3444 1.4883zm-184.28-19.54c0-3.0554-0.61614-4.4594-2.0807-4.7415-2.4662-0.47493-4.0774 3.5925-2.8967 7.3126 1.3709 4.3193 4.9774 2.4563 4.9774-2.5711z"/><path id="path3632" fill="#090705" d="m217.62 573.6c-5.091-0.59031-9.4656-1.2826-9.7215-1.5385-0.25589-0.25588 1.4582-1.9323 3.809-3.7254 4.2743-3.2602 4.2743-3.2602 13.472-1.2864 8.5184 1.828 10.258 1.8103 23.572-0.24086 7.9062-1.218 17.843-3.4868 22.081-5.0417 7.6769-2.8165 7.7142-2.8178 9.9503-0.34697 2.809 3.1039 2.0873 3.6322-10.781 7.8915-15.616 5.1688-32.715 6.5687-52.381 4.2884zm276.13-4.8c-1.9759-1.1066-36.115-10.719-56.25-15.838-16.619-4.2249-39.784-8.8086-53.448-10.576-11.314-1.4631-34.965-1.0112-39.364 0.75212-1.7958 0.71976-2.1875 0.19646-2.1875-2.9228 0-4.4016 0.66413-4.6972 13.125-5.8436 23.379-2.1508 72.791 6.2972 114.2 19.525 6.4362 2.0559 11.981 3.4594 12.321 3.119 0.34046-0.34046-2.6413-5.2933-6.6261-11.006-28.377-40.683-39.69-59.513-59.278-98.66l-11.951-22.295 0.24488-17.304-0.19707-21.724 4.378 9.6088c11.648 25.566 30.901 69.136 46.821 98.479 14.696 27.085 39.184 69.169 41.291 70.482 0.67596 0.4215 1.6358 2.4653 1.4038 3.8937-0.30812 1.8968-3.115 1.0764-4.4845 0.30952zm-348.13-28.26c-17.372-9.3673-36.209-15.136-62.5-19.139-17.6-2.6802-50.926-5.1962-68.438-5.1668l-10.93 0.02v-6.7382c0-14.328 8.7035-40.547 27.709-83.474l7.5651-17.087 7.3597 0.21192c4.0478 0.11663 7.3612 0.41661 7.363 0.66678 0.0018 0.25016-4.9981 11.781-11.111 25.625-13.561 30.711-18.781 44.063-23.28 59.545-1.8978 6.5312-3.7213 12.596-4.0522 13.477-0.47986 1.2776 2.7802 1.4351 16.11 0.7785 42.66-2.1014 81.864 5.9292 114.52 23.459 10.543 5.6588 11.562 6.5293 11.562 9.8708 0 2.0156-0.42188 3.5927-0.9375 3.5047-0.51563-0.088-5.4375-2.5864-10.938-5.5522zm107.09-0.54c0.24904-1.0312 4.1926-13.406 8.7634-27.5s8.8541-28.156 9.5184-31.25c1.085-5.0526 1.2231-4.3279 1.358 7.121l0.15011 12.746-8.8958 19.129c-8.17 17.58-12.07 24.66-10.89 19.76zm-130.37-59.983 8.2809-16.233 5.3379-0.0171 5.3379-0.0171-2.6777 5.3125c-6.26 12.44-18.89 27.19-23.27 27.19-0.70834 0 2.4385-7.3048 6.993-16.233zm89.259-68.498c-24.992-8.8764-45.752-27.338-56.559-50.96-5.9803-13.072-4.5138-13.354 3.4178-5.7013 4.0004 3.8598 14.561 13.435 23.468 21.278 23.156 20.39 41.092 37.619 39.13 37.589-0.92689-0.0145-4.988-0.61783-9.4567-2.205zm93.546-34.206c9.8966-9.6651 30.965-28.008 30.564-26.91-4.5094 12.359-9.2439 24.063-26.184 42.042-14.3 14.923-30.726 17.559-38.298 19.31 0 0 24.377-25.031 33.918-34.442zm-222.63-40.16c-0.01074-5.9749-0.95314-10.26 0.0019-12.956 4.4654-5.6197 7.6107-9.3971 12.041-16.129 0.47044 4.6221 1.0278 10.877 0.4203 15.864-0.45773 3.3553-2.2471 5.4302-6.1562 12.626l-6.2871 11.573zm272.77-28.809c-0.51511-7.7413-2.3966-6.5879 2.7811-13.227 2.8477-3.6513 6.8066-8.4849 7.4226-9.3664 2.1816-3.1221-8.104-13.366-25.495-25.393-3.0938-2.1394-8.9824-7.3126-13.086-11.496l-7.4609-7.6063h6.2779c8.4554 0 15.599 3.7427 32.004 16.767 13.154 10.443 23.515 21.624 23.515 25.374 0 2.3762-8.826 14.691-17.879 24.947l-7.5584 7.8379zm-226.21-9.61c-3.6927-4.3351-7.4348-9.9094-8.6439-12.117-2.1891-3.9974-2.1822-4.0368 1.6411-9.375 7.5653-10.563 40.152-36.004 46.1-35.991 4.8977 0.0665 2.2074 1.7481-3.2702 7.6303-3.6812 3.9531-8.4266 10.079-10.774 13.614-2.3478 3.5345-8.1692 8.365-11.638 11.269-8.5952 7.1963-9.5036 9.1592-6.3124 13.641 1.1886 1.6693 3.808 3.6786 3.5125 5.1607-0.33411 1.6757-0.96418 3.0191-1.7256 6.7004l-1.6481 7.9689zm93.262-72.435c12.584-3.0166 35.242-3.7325 47.491-1.1359 9.7375 2.0642 20.605 8.5118 28.699 13.694l5.8474 3.7437-20-0.98494c-22.396-1.1029-82.631-0.8976-89.375 0.30465-2.9595 0.5276-4.4706 0.49355-3.625-0.36661 9.5007-6.6019 20.046-12.421 30.963-15.255zm165.78-39.7c-2.0576-1.0497-4.8661-2.9053-6.2411-4.1235-1.375-1.2183-7.2812-4.6258-13.125-7.5724-10.189-5.1374-11.352-5.4207-28.32-6.9011-9.7322-0.84904-18.814-2.1424-20.181-2.8742-1.3674-0.73179-5.639-1.7011-9.4926-2.154s-7.0064-1.2821-7.0064-1.8427c0-0.56059 1.9555-1.9472 4.3456-3.0814 5.3832-2.5545 12.772-10.585 15.295-16.623 4.5777-10.956 0.45287-25.67-8.4726-30.224-5.7155-2.9158-12.436-3.1594-17.331-0.62809-7.6774 3.9701-12.123 12.582-14.539 28.162l-0.87093 5.6175 3.7879-4.055c2.0834-2.2302 4.8279-3.9897 6.0989-3.91 1.9182 0.12037 1.961 0.23796 0.25178 0.69195-2.6102 0.69329-3.8131 5.1152-2.2076 8.1151 2.7221 5.0863 7.3443 0.55577 5.4672-5.3586-0.53696-1.6918-0.37371-2.3664 0.44958-1.8576 0.711 0.43943 1.9086 2.7599 2.6996 5.1565 1.7476 5.2953-0.13576 12.437-3.8335 14.416-2.3853 1.2766-14.149-0.54186-24.891-3.8477-7.2563-2.2331-42.168-3.0119-56.876-1.2688-7.2537 0.85966-14.509 1.2316-16.123 0.82648-3.7022-0.9292-6.3188-6.9921-5.2734-12.219 1.1126-5.5633 2.9601-7.2992 7.7683-7.2992 3.4414 0 4.556 0.70811 6.2398 3.9643 1.8513 3.58 2.1734 3.7438 3.3229 1.6898 1.7633-3.1508 0.2695-18.607-2.1388-22.282-7.3304-11.188-24.586-10.298-30.791 1.8653-5.5277 10.835-5.1838 26.027 0.79343 35.059 2.2452 3.3928 2.6894 4.8955 1.5498 5.2436-0.87854 0.26839-9.4724 2.842-19.097 5.7191-20.445 6.1115-33.631 12.177-40.073 18.433l-4.6042 4.4716-2.4295-3.0194c-2.8697-3.5664-6.0184-10.31-6.0184-12.89 0-1.0042-0.78958-2.9442 0.0787-3.8526 0.86828-0.90849 2.2839-3.3955 3.4514-5.2212 1.4869-2.3251 5.3827-2.9495 8.9135-3.546 3.596-0.60754 5.5486-2.7909 7.4349-5.44 1.4543-2.0424 2.6577-3.0749 2.3687-3.3639-0.28901-0.28901-4.531 1.9672-9.4266 5.0139l-8.9012 5.5394-3.2097-5.477c-1.7654-3.0124-3.2097-7.2792-3.2097-9.4819 0-4.1284 3.8713-11.671 6.5878-12.836 14.223-6.0966 22.925-9.5892 23.89-9.5892 2.1491 0 18.873-8.012 19.806-9.4888 0.50013-0.79116 3.4689-4.8435 6.5973-9.0052 7.2595-9.6572 12.915-12.756 24.384-12.756 10.139 0 16.78 2.3275 27.152 9.9202 4.2859 3.1376 9.7795 6.9506 12.208 8.4733 4.037 2.5313 4.306 2.564 3.1382 0.38212-0.70245-1.3125-1.8458-2.7378-2.5408-3.1674-3.5221-2.1768 1.9971-2.9427 21.427-2.9735 21.357-0.0339 21.357-0.0339 25.916-3.5218 2.5075-1.9184 8.1831-5.316 12.612-7.5504 12.59-6.3508 24.185-5.3957 41.165 3.3907 7.2449 3.7489 16.178 13.808 19.553 22.017 1.8443 4.4862 3.056 6.2966 3.0739 4.5927 0.037-3.5047 0.24528-3.4974 8.0301 0.28332 3.506 1.7027 10.489 3.9525 15.517 4.9996 13.274 2.7642 20.961 6.3777 22.749 10.694 1.2746 3.0773 1.0516 4.4943-1.6059 10.205-4.6565 10.005-4.6556 10.031 0.44874 13.729 6.0157 4.3578 6.7606 7.0058 4.3263 15.38-2.3749 8.1693-4.8197 9.9301-10.069 7.2521zm6.3426-3.4319c2.7906-4.259 3.6238-12.039 1.574-14.697-0.91173-1.1822-5.314-4.0363-9.7827-6.3425-4.4688-2.3062-8.3069-5.1358-8.5292-6.288-0.5073-2.6297 3.2076-2.7314 6.5806-0.18028 2.9352 2.2201 4.4486 2.3408 4.4486 0.3549 0-0.81419 1.1688-3.8947 2.5973-6.8456s2.4081-6.3477 2.1769-7.5483c-0.65376-3.3947-8.3872-4.9355-20.99-7.8478-6.3282-1.4623-14.258-6.1762-16.757-7.4505-4.5445-2.3169-4.5445-2.3169-5.2961 0.67785-1.3424 5.3486-6.662 4.2027-8.9344-3.8962-4.5273-16.135-21.608-25.628-39.934-25.232-9.3022 0.20095-19.98 1.8047-28.017 9.5539-4.912 4.7364-9.8455 3.8558-9.8455 1.3188 0-0.77615-6.9052-1.25-18.216-1.25h-18.216l2.5907 3.2936c1.4249 1.8115 2.5907 4.0615 2.5907 5 0 2.3074-3.0662 2.1616-5.0598-0.24061-0.88875-1.0709-4.192-3.4308-7.3406-5.2442s-9.3215-3.0769-12.205-5.4004c-13.805-11.123-24.574-6.4089-38.4-0.83823-2.7224 1.0969-10.844 7.3963-15.456 14.86-7.9803 12.916-11.539 16.382-11.539 11.239 0-1.2823 1.1658-3.8135 2.5907-5.625s0 0 1.9687-3.2936c0.17552-0.29363-7.6173 3.4312-16.778 6.861-13.661 5.1147-16.762 6.4377-20.094 10.208-2.2344 2.5285-3.1875 5.4509-3.1875 6.4943 0 2.3621-0.85404 6.994 4.049 11.308 0.45429-0.002 4.4822-0.84103 8.951-3.5449 6.8217-4.1276 8.4-4.6468 9.8395-3.2371 2.7591 2.702-3.7952 10.352-10.319 12.043-3.7237 0.96536-5.5482 2.4123-7.5834 5.5627-3.5955 5.5657-4.5846 8.1789 0.0231 13.45l1.8356 2.0999c3.4525 1.6104 5.2938-1.472 6.1736-2.5811 4.0472-5.1022 15.618-12.407 34.78-18.216 9.9688-3.0219 20.146-3.8236 20.783-4.3787 0.68658-0.59851 0.30918-1.9473-0.92707-3.3134-2.8933-3.1971-9.2309-16.706-8.3294-25.332 2.0189-19.315 20.521-27.87 36.341-21.54 7.3212 2.9294 10.945 12.062 10.876 24.369-0.0301 5.4064-1.7325 12.058-2.7026 14.782-0.9701 2.7237-3.0417 4.3814-2.8751 4.548 0.16664 0.16664 14.545-2.5205 18.988-3.1626 17.229-2.4899 30.134-5.5762 46.637 2.6144l9.1398 4.5362-0.8303-7.7533c-1.493-13.941-0.16268-30.435 7.3532-36.953 9.1922-7.9711 28.783-6.5829 35.662 3.661 3.3225 4.9472 3.0661 8.4472 3.0335 16.143-0.0275 6.486-1.0854 11.657-3.0755 15.426-2.8217 5.3444-12.524 13.406-15.077 13.406-0.93125 0-1.0479 0.42156-0.3089 1.1162 2.2358 2.1016 17.811 2.7107 32.191 3.6708 14.088 0.94066 16.741 3.739 28.765 10.01 6.748 3.5194 14.06 7.811 16.25 9.5369 4.9317 3.8873 5.3225 3.8918 7.8147 0.0882zm-7.0629-23.628c-0.28647-0.25062-1.9271-1.1254-3.6458-1.944-2.9466-1.4033-2.9865-1.3773-0.69859 0.45568 1.9912 1.5953 6.0598 2.9891 4.3444 1.4883zm-184.28-19.54c0-3.0554-0.61614-4.4594-2.0807-4.7415-2.4662-0.47493-4.0774 3.5925-2.8967 7.3126 1.3709 4.3193 4.9774 2.4563 4.9774-2.5711z"/><path id="path3429" fill="#606062" d="m44.802 402.63c-21.877 6.7528-31.587 9.2294-32.912 8.3939-5.4065-3.4103-10.212-22.079-6.0303-23.425 0.85938-0.27672 18.438-5.7604 39.062-12.186l37.5-11.683 13.462-4.3158c0.1582-0.009 3.8534-1.1339 8.2115-2.5 9.3176-2.9208 12.707-3.2398 10.451-0.98387-1.6733 1.6733-1.8499 7.7967-0.33513 11.625 0.54404 1.375 0.75716 3.1208 0.47361 3.8796-0.0951 0.25447-2.8064 1.3094-7.4432 2.9336-9.1887 3.2188-25.939 8.6737-44.875 14.566-31.943 9.9402-51.806 16.719-51.811 17.683-0.005 0.85937 0.41322 1.5888 0.92884 1.6209 0.51563 0.0321 24.138-7.1398 52.495-15.938 31.84-9.8785 51.559-16.593 51.562-17.558 0.007-1.9108 2.0522-2.0569 3.183-0.22729 0.45386 0.73438 1.6121 1.0333 2.5738 0.66424 2.171-0.83311 2.2964 0.9977 0.18606 2.7187-0.85937 0.70085-6.9062 2.9094-13.438 4.9078 0 0-15.64 5.1581-63.245 19.824zm88.308-42.5c-1.0851-1.3074-1.1987-2.9011-0.38098-5.3427l1.1653-3.4795 0.90845 4.8152c1.0368 5.4952 0.53264 6.6885-1.6928 4.007z"/><path id="path3423" fill="#090705" d="m7.3486 400.86c-0.34358-0.56964-1.0015-2.7616-1.462-4.871-0.7207-3.3013-0.52659-3.7609 1.3942-3.301 1.2273 0.29387 24.946-6.4559 52.708-14.999 48.06-14.79 50.523-15.418 51.438-13.116 0.52849 1.3299 0.52849 2.7971 0 3.2605-0.52849 0.46337-23.675 7.7737-51.438 16.245-27.762 8.4715-50.823 15.946-51.246 16.61-0.42321 0.66395-1.0506 0.74113-1.3941 0.17149zm108.98-25.32c-0.0753-0.62221 0.67813-1.2635 1.805-0.40835 2.4957 1.4961 2.4087 2.2444 1.2884 2.3263-0.93722 0.17702-2.9527-0.75472-3.0934-1.918zm-5.5332-18.339c0-1.12 0.72483-1.7414 1.9225-1.7311 1.2295 0.0109 0.8092 0.65551 0.72447 0.84336-0.32736 0.68391-0.57493 1.7922-1.0828 2.394-0.50784 0.60173-1.5642-0.39817-1.5642-1.5063z"/></g><path id="path4864" d="m249.29 211.42c-13.435-0.15456-28.279 2.3144-44.506 8.584-86.543 33.438-68.964 126.1-68.964 126.1 1.6225 6.1136-20.121 5.3975-21.773 8.4742-3.6904 6.8739 1.3152 14.941-0.0693 15.4-88.134 29.26-108.4 32.468-103.42 37.274 1.5126 1.4595 105.32-32.437 105.2-33.309-0.25248-1.8699 1.1107-2.101 2.184-0.77145 1.6368 2.0276 4.8037 1.4053 4.8037 1.4053 3.6063-0.0843 7.6842-4.1138 12.554-5.3897 4.7836-1.2534 8.6284-1.0117 8.6284-1.0117s44.87 89.734 139.99 53.574c100.74-38.296 69.123-145.99 58.484-156.11-3.462-3.2946-34.904-53.547-93.121-54.217zm-4.4238 12.994c110.37 15.744 108.58 118.95 71.654 158.09-24.528 26.002-63.309 39.181-98.052 29.761-66.796-18.111-71.255-81.892-69.28-92.368 2.1484-11.397 11.571-85.857 90.805-95.434 1.6476-0.0448 3.2879-0.27495 4.873-0.0488z" fill-rule="evenodd" fill="#ddd"/><path id="path4878" d="m152.45 287.36c0.047-14.219 1.2852-20.254 4.4344-27.571 5.8129-9.6485 20.756-15.858 24.25-16.384-7.7045 7.4597-13.024 13.966-16.519 18.455-4.0753 5.2352-7.1544 11.834-12.165 25.5z" fill-rule="evenodd" fill="#fff"/><path id="path4880" d="m326.71 376.62c-1.4961 11.361 19.12-8.75 14.838-3.5578-17.488 21.205-24.448 30.498-47.599 42.783-9.236 4.9007-33.706 12.726-54.972 12.199-2.0664-2.0496 26.084-4.0765 5.1755-9.6818 17.073-1.6501 29.063-3.3892 45.917-11.968 21.553-10.971 33.984-26.058 36.64-29.774z" fill-rule="evenodd" fill="#fff"/><path id="path4882" d="m113.39 369.67c-97.187 31.96-103.57 32.46-103.96 36.86 0.42335 0.90737 2.2642 1.6657 4.9171 0.87686 40.138-11.934 85.639-27.476 101.75-33.39-1.1288-2.4494 2.867 0.28207 3.6381 0.6308 1.1686 0.42204 3.4246 0.0394 4.6981-0.35377-7.6034-3.001-8.3244-4.7798-9.9714-20.908-1.8297 3.3678-2.7767 7.6686-1.074 16.294z" fill-rule="evenodd" fill="#979797"/><path id="path3468" fill="#9b9d9e" d="m136.73 345.39c0.0909 1.375 0.82439 2.9252 1.63 3.445 0.80565 0.51971 1.8502 2.6994 2.3211 4.8436 1.0524 4.7914-1.6069 7.2336-4.2201 3.8756-1.4708-1.89-1.5719-1.6099-0.79838 2.2108 0.93743 4.6303 3.8312 8.7628 6.1138 8.7309 0.75281-0.01 0.52501-0.57302-0.50624-1.25-1.6667-1.0941-1.6667-1.3676 0-2.4617 2.4106-1.5825 3.71-1.5889 3.9062-0.0191 0.0859 0.6875 0.22982 1.6719 0.31975 2.1875zm-17.508 27.5c-0.84278-2.1962 2.2443-2.5269 5.8043-0.62163 1.5786 0.84487 2.6007 0.83478 3.1357-0.031 0.43657-0.70639 0.33009-1.1298-0.23664-0.94088-0.56672 0.18891-1.2717-0.21903-1.5665-0.90653-0.29487-0.6875 0.54888-1.4585 1.875-1.7134 1.3261-0.25483 3.7742-0.98107 5.4401-1.6139 2.776-1.0544 2.862-1.3175 1.0299-3.1496-1.6742-1.6742-2.871-1.7778-7.3637-0.63746-2.9505 0.74891-5.65 1.0762-5.9989 0.72725-0.34893-0.34894-0.64834-3.0414-0.66534-5.9834-0.0259-4.4876-3.0294-1.2921-4.881-0.81129-1.2138 0.31519 0.13437-2.9033-0.23437-2.3067-0.36875 0.59664 0.12405 0.77993 1.0951 0.4073 1.2582-0.4828 1.9818 0.65503 2.518 3.9596 0.90402 5.5708 0.11985 7.175-3.0961 6.334-1.9889-0.5201-2.2662-0.15671-1.5861 2.0786 0.73994 2.432 4.0615 7.0839 5.058 7.0839 0.21562 0 0.0683-0.84375-0.32747-1.875zm15.798-21.324c0-1.7593-0.50969-2.8838-1.1326-2.4988-0.62296 0.38501-0.8386 1.8244-0.47921 3.1988 0.89943 3.4394 1.6119 3.13 1.6119-0.70002zm-7.8386 1.1936c-0.41537-0.41536-1.4935-0.45976-2.3958-0.0986-0.99717 0.39903-0.70098 0.69523 0.75521 0.7552 1.3177 0.0542 2.056-0.24116 1.6406-0.65652z"/><path id="path4909" d="m116.67 368.48c1.5104-1.3602 13.494-3.2764 13.961-3.2951 2.5821-0.10381 6.7981 0.21106 1.7801 1.0989-8.5329 1.5097-9.4616 2.0772-15.623 3.4316-1.2231 0.26886-1.048-0.39736-0.11743-1.2354z" fill-rule="evenodd" fill="#fff"/><path id="path4911" d="m140.9 360.6c-1.1111-0.97607-1.9285 0.0692-1.911 0.5513 0.037 1.0208 0.6165 1.6424 1.351 1.8235 0.57572 0.14196 1.5394 0.60045 1.6021-0.77321 0.0176-0.38542-0.48049-1.1083-1.042-1.6016z" fill-rule="evenodd" fill="#fff"/><text id="text4913" style="word-spacing:0px;letter-spacing:0px" font-family="sans-serif" xml:space="preserve" transform="scale(.85 1.3)" line-height="125%" stroke="#ffffff" font-size="54px" y="264.21338" x="186" stroke-width="3" fill="#d40000"><tspan id="tspan4915" font-family="&apos;Cooper Black&apos;" stroke="#ffffff" y="264" x="186" stroke-width="3" fill="#d40000">SUPER</tspan></text><path id="path3790" opacity="0.877" d="m340.99 326.45c0 55.481-42.759 98.59-95.889 98.589-53.13 0-95.182-42.784-95.578-97.345-0.34154-47.061 37.158-104.19 95.578-103.57 53.127 0.56597 95.889 46.843 95.889 102.32z" fill="url(#radialGradient4931)"/><path id="path3369" d="m160.67 279.01s-13.36 41.598-8.3722 67.45c7.5951 39.368-13.36-31.295-13.36-31.295s0.71253-21.965 21.732-36.155z" fill-rule="evenodd" fill="#ddd"/><path id="path4171" d="m332.25 284.07s12.982 23.764 3.5206 62.71c-9.4615 38.946 17.383-10.122 17.383-10.122s1.3202-57.429-20.903-52.588z" fill-rule="evenodd" fill="#ddd"/></svg>
