<?xml version="1.0" standalone="no"?>
<!DOCTYPE svg PUBLIC "-//W3C//DTD SVG 20010904//EN"
 "http://www.w3.org/TR/2001/REC-SVG-20010904/DTD/svg10.dtd">
<svg version="1.0" xmlns="http://www.w3.org/2000/svg"
 width="128.000000pt" height="128.000000pt" viewBox="0 0 128.000000 128.000000"
 preserveAspectRatio="xMidYMid meet">

<g transform="translate(0.000000,128.000000) scale(0.100000,-0.100000)"
fill="#000000" stroke="none">
<path d="M0 640 l0 -640 640 0 640 0 0 640 0 640 -640 0 -640 0 0 -640z m546
603 c-273 -3 -362 -6 -368 -16 -5 -7 -8 -8 -8 -1 0 6 3 14 7 17 3 4 169 6 367
5 l361 -3 -359 -2z m-379 -115 c-2 -13 -4 -5 -4 17 -1 22 1 32 4 23 2 -10 2
-28 0 -40z m404 -308 c66 -168 77 -190 97 -190 13 0 22 -6 22 -15 0 -12 -15
-15 -75 -15 -43 0 -75 4 -75 10 0 6 9 10 20 10 24 0 25 15 5 64 l-15 36 -91 0
-90 0 -18 -42 c-21 -48 -19 -58 10 -58 10 0 19 -4 19 -10 0 -6 -27 -10 -60
-10 -63 0 -75 8 -38 25 17 8 40 54 97 198 99 250 94 250 192 -3z m316 69 c67
-17 83 -49 83 -166 0 -86 1 -92 22 -95 12 -2 23 -9 26 -15 2 -9 -11 -13 -47
-13 -41 0 -51 3 -51 17 0 15 -2 15 -17 1 -43 -38 -137 -29 -168 15 -18 25 -20
70 -4 99 15 28 70 48 134 48 52 0 55 1 55 25 0 62 -98 91 -138 40 -26 -33 -42
-32 -42 4 0 27 4 31 43 39 58 13 53 13 104 1z m290 -716 c-2 -21 -4 -6 -4 32
0 39 2 55 4 38 2 -18 2 -50 0 -70z m-20 22 c1 -36 5 -74 8 -85 6 -20 1 -20
-509 -20 -485 0 -516 1 -517 18 0 9 -3 47 -8 85 l-7 67 516 0 515 0 2 -65z"/>
<path d="M419 847 c-20 -51 -35 -95 -32 -99 5 -9 137 -11 145 -2 6 5 -58 173
-70 186 -4 4 -23 -34 -43 -85z"/>
<path d="M797 738 c-48 -38 -15 -118 49 -118 49 0 74 29 74 85 l0 45 -53 0
c-29 0 -61 -6 -70 -12z"/>
</g>
</svg>
