<?xml version="1.0" standalone="no"?>
<!DOCTYPE svg PUBLIC "-//W3C//DTD SVG 20010904//EN"
 "http://www.w3.org/TR/2001/REC-SVG-20010904/DTD/svg10.dtd">
<svg version="1.0" xmlns="http://www.w3.org/2000/svg"
 width="128.000000pt" height="128.000000pt" viewBox="0 0 128.000000 128.000000"
 preserveAspectRatio="xMidYMid meet">

<g transform="translate(0.000000,128.000000) scale(0.100000,-0.100000)"
fill="#000000" stroke="none">
<path d="M0 640 l0 -640 640 0 640 0 0 640 0 640 -640 0 -640 0 0 -640z m888
593 c31 -20 95 -75 141 -120 l84 -84 -6 -166 c-4 -91 -7 -300 -7 -465 l0 -298
-460 0 -460 0 0 238 c0 131 -3 395 -7 585 l-6 347 332 0 333 0 56 -37z"/>
<path d="M826 1051 c-4 -6 -6 -11 -4 -11 60 0 208 -10 223 -14 11 -4 5 0 -12
9 -43 20 -198 32 -207 16z"/>
<path d="M396 822 c-3 -5 1 -9 9 -9 8 0 12 4 9 9 -3 4 -7 8 -9 8 -2 0 -6 -4
-9 -8z"/>
<path d="M866 822 c-3 -5 1 -9 9 -9 8 0 12 4 9 9 -3 4 -7 8 -9 8 -2 0 -6 -4
-9 -8z"/>
<path d="M655 688 c-26 -68 -58 -151 -71 -185 l-24 -63 24 0 c21 0 29 16 81
153 32 83 64 167 72 185 13 31 12 32 -10 32 -22 0 -29 -14 -72 -122z"/>
<path d="M310 700 c-12 -16 -19 -30 -16 -30 2 0 14 14 26 30 12 17 19 30 16
30 -2 0 -14 -13 -26 -30z"/>
<path d="M960 700 c12 -16 24 -30 26 -30 3 0 -4 14 -16 30 -12 17 -24 30 -26
30 -3 0 4 -13 16 -30z"/>
<path d="M339 603 c9 -18 8 -22 -9 -25 -19 -3 -16 -9 25 -70 25 -38 49 -68 54
-68 5 0 14 7 21 15 11 13 7 24 -24 68 -20 29 -45 63 -57 77 -17 21 -19 22 -10
3z"/>
<path d="M899 558 c-25 -35 -49 -69 -53 -76 -8 -13 9 -42 25 -42 5 0 29 30 54
68 41 61 44 67 25 70 -16 3 -18 7 -10 23 19 35 4 20 -41 -43z"/>
</g>
</svg>
